<?xml version="1.0" encoding="UTF-8" standalone="no"?>
<svg width="23px" xmlns="http://www.w3.org/2000/svg" xmlns:xlink="http://www.w3.org/1999/xlink" height="17px">
 <path fill-rule="evenodd" d="m3.68 15.897l0.559 1.105c2.101-0.976 3.68-2.328 4.74-4.059 1.06-1.732 1.59-3.642 1.59-5.73 0-0.956-0.118-1.887-0.353-2.791-0.236-0.907-0.56-1.667-0.972-2.284-0.902-1.432-2.335-2.148-4.298-2.148-1.433 0-2.615 0.437-3.548 1.313-0.932 0.875-1.399 2.009-1.399 3.402 0 1.472 0.442 2.627 1.326 3.463 0.883 0.835 2.031 1.253 3.444 1.253s2.581-0.488 3.503-1.462c0.099 0.298 0.148 0.676 0.148 1.133 0 0.398-0.049 0.876-0.148 1.433-0.176 1.055-0.696 2.089-1.56 3.104-0.863 1.015-1.874 1.771-3.032 2.268zm12.424 0l0.559 1.105c2.101-0.976 3.68-2.328 4.74-4.059 1.06-1.732 1.59-3.642 1.59-5.73 0-0.956-0.118-1.887-0.353-2.791-0.236-0.907-0.56-1.667-0.972-2.284-0.902-1.432-2.335-2.148-4.298-2.148-1.433 0-2.615 0.437-3.548 1.313-0.932 0.875-1.398 2.009-1.398 3.402 0 1.472 0.442 2.627 1.325 3.463 0.883 0.835 2.031 1.253 3.444 1.253s2.581-0.488 3.503-1.462c0.099 0.298 0.148 0.676 0.148 1.133 0 0.398-0.049 0.876-0.148 1.433-0.176 1.055-0.696 2.089-1.56 3.104-0.863 1.015-1.874 1.771-3.032 2.268z" fill="#997e4c"/>
</svg>
