<?xml version="1.0" encoding="UTF-8" standalone="no"?>
<svg width="23px" xmlns="http://www.w3.org/2000/svg" xmlns:xlink="http://www.w3.org/1999/xlink" height="17px">
 <path fill-rule="evenodd" d="m19.215 1.113l-0.556-1.083c-2.089 0.957-3.66 2.285-4.714 3.984s-1.582 3.575-1.582 5.625c0 0.938 0.118 1.851 0.352 2.739 0.234 0.889 0.556 1.637 0.966 2.242 0.898 1.406 2.323 2.109 4.275 2.109 1.425 0 2.601-0.43 3.529-1.288 0.926-0.861 1.39-1.974 1.39-3.341 0-1.446-0.439-2.578-1.317-3.398-0.879-0.821-2.021-1.23-3.426-1.23-1.406 0-2.568 0.479-3.485 1.435-0.098-0.294-0.146-0.664-0.146-1.113 0-0.392 0.048-0.86 0.146-1.407 0.176-1.034 0.693-2.051 1.552-3.047s1.864-1.738 3.016-2.227zm-12.357 0l-0.556-1.083c-2.089 0.957-3.66 2.285-4.714 3.984s-1.581 3.575-1.581 5.625c0 0.938 0.117 1.851 0.351 2.739 0.235 0.889 0.557 1.637 0.967 2.242 0.897 1.406 2.323 2.109 4.275 2.109 1.424 0 2.6-0.43 3.528-1.288 0.927-0.861 1.391-1.974 1.391-3.341 0-1.446-0.439-2.578-1.318-3.398-0.879-0.821-2.02-1.23-3.426-1.23-1.405 0-2.567 0.479-3.484 1.435-0.098-0.294-0.146-0.664-0.146-1.113 0-0.392 0.048-0.86 0.146-1.407 0.176-1.034 0.692-2.051 1.552-3.047 0.858-0.996 1.864-1.738 3.015-2.227z" fill="#997e4c"/>
</svg>
