<?xml version="1.0" encoding="UTF-8" standalone="no"?>
<svg xmlns="http://www.w3.org/2000/svg" xmlns:xlink="http://www.w3.org/1999/xlink">
 <symbol id="svg-arrow-down" viewBox="0 0 20.2 12.2">
  <path d="m10.1 12.2l10.1-10.1-2.1-2.1-8 8-8-8-2.1 2.1 10.1 10.1z"/>
 </symbol>
 <symbol id="svg-arrow-left" viewBox="0 0 12.2 20.2">
  <path class="st0" d="m0 10.1l10.1-10.1 2.1 2.1-8 8 8 8-2.1 2.1-10.1-10.1z"/>
 </symbol>
 <symbol id="svg-arrow-right" viewBox="0 0 12.2 20.2">
  <path class="st0" d="m12.2 10.1l-10.1-10.1-2.1 2.1 8 8-8 8 2.1 2.1 10.1-10.1z"/>
 </symbol>
 <symbol id="svg-fb" viewBox="0 0 12 24">
  <path class="st0" d="m12 0h-3.8c-3.6 0-5.2 1.6-5.2 4.6v3.4h-3v4h3v12h5v-12h3.6l0.4-4h-4v-1.7c0-0.9 0.2-1.3 1.1-1.3h2.9v-5z"/>
 </symbol>
 <symbol id="svg-hour" viewBox="0 0 20 20">
  <path class="st0" d="m10 3.2c3.8 0 6.8 3.1 6.8 6.8s-3.1 6.8-6.8 6.8-6.8-3-6.8-6.8 3-6.8 6.8-6.8m0-3.2c-5.5 0-10 4.5-10 10s4.5 10 10 10 10-4.5 10-10-4.5-10-10-10z"/>
  <path class="st0" d="m14 11h-4c-0.6 0-1-0.5-1-1s0.5-1 1-1h4c0.6 0 1 0.5 1 1s-0.4 1-1 1z"/>
  <path class="st0" d="m10 11c-0.6 0-1-0.5-1-1v-4c0-0.6 0.5-1 1-1s1 0.5 1 1v4c0 0.6-0.4 1-1 1z"/>
 </symbol>
 <symbol id="svg-insta" viewBox="0 0 20 20">
  <path class="st0" d="m10 1.8c2.7 0 3 0 4 0.1 2.8 0.1 4 1.4 4.1 4.1 0 1.1 0.1 1.4 0.1 4 0 2.7 0 3-0.1 4-0.1 2.7-1.4 4-4.1 4.1-1.1 0-1.4 0.1-4 0.1-2.7 0-3 0-4-0.1-2.8-0.1-4-1.4-4.1-4.1 0-1.1-0.1-1.4-0.1-4 0-2.7 0-3 0.1-4 0.1-2.7 1.3-4 4.1-4.1 1-0.1 1.3-0.1 4-0.1zm0-1.8c-2.7 0-3.1 0-4.1 0.1-3.7 0.1-5.7 2.1-5.8 5.8-0.1 1-0.1 1.4-0.1 4.1s0 3.1 0.1 4.1c0.2 3.6 2.2 5.7 5.8 5.8 1 0.1 1.4 0.1 4.1 0.1s3.1 0 4.1-0.1c3.6-0.2 5.7-2.2 5.8-5.8 0-1.1 0.1-1.4 0.1-4.1s0-3.1-0.1-4.1c-0.2-3.6-2.2-5.7-5.8-5.8-1-0.1-1.4-0.1-4.1-0.1zm0 4.9c-2.8 0-5.1 2.3-5.1 5.1s2.3 5.1 5.1 5.1 5.1-2.3 5.1-5.1c0-2.8-2.3-5.1-5.1-5.1zm0 8.4c-1.8 0-3.3-1.5-3.3-3.3s1.5-3.3 3.3-3.3 3.3 1.5 3.3 3.3c0 1.8-1.5 3.3-3.3 3.3zm5.3-9.8c-0.7 0-1.2 0.5-1.2 1.2s0.5 1.2 1.2 1.2c0.7 0 1.2-0.5 1.2-1.2s-0.5-1.2-1.2-1.2z"/>
 </symbol>
 <symbol id="svg-line" viewBox="0 0 1063.7 53.2">
  <polygon points="1063.7 26.2 1063.7 27.7 1030.5 10.4 1030.5 8.9" class="st0"/>
  <polygon points="1063.7 28.7 1063.7 30.2 1030.5 12.9 1030.5 11.4" class="st0"/>
  <polygon points="1063.7 31.2 1063.7 32.7 1030.5 15.4 1030.5 13.9" class="st0"/>
  <polygon points="1063.7 33.7 1063.7 35.2 1030.5 17.9 1030.5 16.4" class="st0"/>
  <polygon points="1063.7 44.2 1063.7 45.7 1030.5 28.4 1030.5 26.9" class="st0"/>
  <polygon points="1063.7 46.7 1063.7 48.2 1030.5 30.9 1030.5 29.4" class="st0"/>
  <polygon points="1063.7 49.2 1063.7 50.7 1030.5 33.4 1030.5 31.9" class="st0"/>
  <polygon points="1063.7 51.7 1063.7 53.2 1030.5 35.9 1030.5 34.4" class="st0"/>
  <polygon points="1030.5 26.9 1030.5 25.4 997.2 42.7 997.2 44.2" class="st0"/>
  <polygon points="1030.5 24.4 1030.5 22.9 997.2 40.2 997.2 41.7" class="st0"/>
  <polygon points="1030.5 21.9 1030.5 20.4 997.2 37.7 997.2 39.2" class="st0"/>
  <polygon points="1030.5 19.4 1030.5 17.9 997.2 35.2 997.2 36.7" class="st0"/>
  <polygon points="1030.5 9 1030.5 7.5 997.2 24.8 997.2 26.3" class="st0"/>
  <polygon points="1030.5 6.5 1030.5 5 997.2 22.3 997.2 23.8" class="st0"/>
  <polygon points="1030.5 4 1030.5 2.5 997.2 19.8 997.2 21.3" class="st0"/>
  <polygon points="1030.5 1.5 1030.5 0 997.2 17.3 997.2 18.8" class="st0"/>
  <polygon points="997.2 26.2 997.2 27.7 964 10.4 964 8.9" class="st0"/>
  <polygon points="997.2 28.7 997.2 30.2 964 12.9 964 11.4" class="st0"/>
  <polygon points="997.2 31.2 997.2 32.7 964 15.4 964 13.9" class="st0"/>
  <polygon points="997.2 33.7 997.2 35.2 964 17.9 964 16.4" class="st0"/>
  <polygon points="997.2 44.2 997.2 45.7 964 28.4 964 26.9" class="st0"/>
  <polygon points="997.2 46.7 997.2 48.2 964 30.9 964 29.4" class="st0"/>
  <polygon points="997.2 49.2 997.2 50.7 964 33.4 964 31.9" class="st0"/>
  <polygon points="997.2 51.7 997.2 53.2 964 35.9 964 34.4" class="st0"/>
  <polygon points="964 26.9 964 25.4 930.8 42.7 930.8 44.2" class="st0"/>
  <polygon points="964 24.4 964 22.9 930.8 40.2 930.8 41.7" class="st0"/>
  <polygon points="964 21.9 964 20.4 930.8 37.7 930.8 39.2" class="st0"/>
  <polygon points="964 19.4 964 17.9 930.8 35.2 930.8 36.7" class="st0"/>
  <polygon points="964 9 964 7.5 930.8 24.8 930.8 26.3" class="st0"/>
  <polygon points="964 6.5 964 5 930.8 22.3 930.8 23.8" class="st0"/>
  <polygon points="964 4 964 2.5 930.8 19.8 930.8 21.3" class="st0"/>
  <polygon points="964 1.5 964 0 930.8 17.3 930.8 18.8" class="st0"/>
  <polygon points="930.8 26.2 930.8 27.7 897.5 10.4 897.5 8.9" class="st0"/>
  <polygon points="930.8 28.7 930.8 30.2 897.5 12.9 897.5 11.4" class="st0"/>
  <polygon points="930.8 31.2 930.8 32.7 897.5 15.4 897.5 13.9" class="st0"/>
  <polygon points="930.8 33.7 930.8 35.2 897.5 17.9 897.5 16.4" class="st0"/>
  <polygon points="930.8 44.2 930.8 45.7 897.5 28.4 897.5 26.9" class="st0"/>
  <polygon points="930.8 46.7 930.8 48.2 897.5 30.9 897.5 29.4" class="st0"/>
  <polygon points="930.8 49.2 930.8 50.7 897.5 33.4 897.5 31.9" class="st0"/>
  <polygon points="930.8 51.7 930.8 53.2 897.5 35.9 897.5 34.4" class="st0"/>
  <polygon points="897.5 26.9 897.5 25.4 864.3 42.7 864.3 44.2" class="st0"/>
  <polygon points="897.5 24.4 897.5 22.9 864.3 40.2 864.3 41.7" class="st0"/>
  <polygon points="897.5 21.9 897.5 20.4 864.3 37.7 864.3 39.2" class="st0"/>
  <polygon points="897.5 19.4 897.5 17.9 864.3 35.2 864.3 36.7" class="st0"/>
  <polygon points="897.5 9 897.5 7.5 864.3 24.8 864.3 26.3" class="st0"/>
  <polygon points="897.5 6.5 897.5 5 864.3 22.3 864.3 23.8" class="st0"/>
  <polygon points="897.5 4 897.5 2.5 864.3 19.8 864.3 21.3" class="st0"/>
  <polygon points="897.5 1.5 897.5 0 864.3 17.3 864.3 18.8" class="st0"/>
  <polygon points="864.3 26.2 864.3 27.7 831 10.4 831 8.9" class="st0"/>
  <polygon points="864.3 28.7 864.3 30.2 831 12.9 831 11.4" class="st0"/>
  <polygon points="864.3 31.2 864.3 32.7 831 15.4 831 13.9" class="st0"/>
  <polygon points="864.3 33.7 864.3 35.2 831 17.9 831 16.4" class="st0"/>
  <polygon points="864.3 44.2 864.3 45.7 831 28.4 831 26.9" class="st0"/>
  <polygon points="864.3 46.7 864.3 48.2 831 30.9 831 29.4" class="st0"/>
  <polygon points="864.3 49.2 864.3 50.7 831 33.4 831 31.9" class="st0"/>
  <polygon points="864.3 51.7 864.3 53.2 831 35.9 831 34.4" class="st0"/>
  <polygon points="831 26.9 831 25.4 797.8 42.7 797.8 44.2" class="st0"/>
  <polygon points="831 24.4 831 22.9 797.8 40.2 797.8 41.7" class="st0"/>
  <polygon points="831 21.9 831 20.4 797.8 37.7 797.8 39.2" class="st0"/>
  <polygon points="831 19.4 831 17.9 797.8 35.2 797.8 36.7" class="st0"/>
  <polygon points="831 9 831 7.5 797.8 24.8 797.8 26.3" class="st0"/>
  <polygon points="831 6.5 831 5 797.8 22.3 797.8 23.8" class="st0"/>
  <polygon points="831 4 831 2.5 797.8 19.8 797.8 21.3" class="st0"/>
  <polygon points="831 1.5 831 0 797.8 17.3 797.8 18.8" class="st0"/>
  <polygon points="797.8 26.2 797.8 27.7 764.6 10.4 764.6 8.9" class="st0"/>
  <polygon points="797.8 28.7 797.8 30.2 764.6 12.9 764.6 11.4" class="st0"/>
  <polygon points="797.8 31.2 797.8 32.7 764.6 15.4 764.6 13.9" class="st0"/>
  <polygon points="797.8 33.7 797.8 35.2 764.6 17.9 764.6 16.4" class="st0"/>
  <polygon points="797.8 44.2 797.8 45.7 764.6 28.4 764.6 26.9" class="st0"/>
  <polygon points="797.8 46.7 797.8 48.2 764.6 30.9 764.6 29.4" class="st0"/>
  <polygon points="797.8 49.2 797.8 50.7 764.6 33.4 764.6 31.9" class="st0"/>
  <polygon points="797.8 51.7 797.8 53.2 764.6 35.9 764.6 34.4" class="st0"/>
  <polygon points="764.6 26.9 764.6 25.4 731.3 42.7 731.3 44.2" class="st0"/>
  <polygon points="764.6 24.4 764.6 22.9 731.3 40.2 731.3 41.7" class="st0"/>
  <polygon points="764.6 21.9 764.6 20.4 731.3 37.7 731.3 39.2" class="st0"/>
  <polygon points="764.6 19.4 764.6 17.9 731.3 35.2 731.3 36.7" class="st0"/>
  <polygon points="764.6 9 764.6 7.5 731.3 24.8 731.3 26.3" class="st0"/>
  <polygon points="764.6 6.5 764.6 5 731.3 22.3 731.3 23.8" class="st0"/>
  <polygon points="764.6 4 764.6 2.5 731.3 19.8 731.3 21.3" class="st0"/>
  <polygon points="764.6 1.5 764.6 0 731.3 17.3 731.3 18.8" class="st0"/>
  <polygon points="731.3 26.2 731.3 27.7 698.1 10.4 698.1 8.9" class="st0"/>
  <polygon points="731.3 28.7 731.3 30.2 698.1 12.9 698.1 11.4" class="st0"/>
  <polygon points="731.3 31.2 731.3 32.7 698.1 15.4 698.1 13.9" class="st0"/>
  <polygon points="731.3 33.7 731.3 35.2 698.1 17.9 698.1 16.4" class="st0"/>
  <polygon points="731.3 44.2 731.3 45.7 698.1 28.4 698.1 26.9" class="st0"/>
  <polygon points="731.3 46.7 731.3 48.2 698.1 30.9 698.1 29.4" class="st0"/>
  <polygon points="731.3 49.2 731.3 50.7 698.1 33.4 698.1 31.9" class="st0"/>
  <polygon points="731.3 51.7 731.3 53.2 698.1 35.9 698.1 34.4" class="st0"/>
  <polygon points="698.1 26.9 698.1 25.4 664.8 42.7 664.8 44.2" class="st0"/>
  <polygon points="698.1 24.4 698.1 22.9 664.8 40.2 664.8 41.7" class="st0"/>
  <polygon points="698.1 21.9 698.1 20.4 664.8 37.7 664.8 39.2" class="st0"/>
  <polygon points="698.1 19.4 698.1 17.9 664.8 35.2 664.8 36.7" class="st0"/>
  <polygon points="698.1 9 698.1 7.5 664.8 24.8 664.8 26.3" class="st0"/>
  <polygon points="698.1 6.5 698.1 5 664.8 22.3 664.8 23.8" class="st0"/>
  <polygon points="698.1 4 698.1 2.5 664.8 19.8 664.8 21.3" class="st0"/>
  <polygon points="698.1 1.5 698.1 0 664.8 17.3 664.8 18.8" class="st0"/>
  <polygon points="664.8 26.2 664.8 27.7 631.6 10.4 631.6 8.9" class="st0"/>
  <polygon points="664.8 28.7 664.8 30.2 631.6 12.9 631.6 11.4" class="st0"/>
  <polygon points="664.8 31.2 664.8 32.7 631.6 15.4 631.6 13.9" class="st0"/>
  <polygon points="664.8 33.7 664.8 35.2 631.6 17.9 631.6 16.4" class="st0"/>
  <polygon points="664.8 44.2 664.8 45.7 631.6 28.4 631.6 26.9" class="st0"/>
  <polygon points="664.8 46.7 664.8 48.2 631.6 30.9 631.6 29.4" class="st0"/>
  <polygon points="664.8 49.2 664.8 50.7 631.6 33.4 631.6 31.9" class="st0"/>
  <polygon points="664.8 51.7 664.8 53.2 631.6 35.9 631.6 34.4" class="st0"/>
  <polygon points="631.6 26.9 631.6 25.4 598.3 42.7 598.3 44.2" class="st0"/>
  <polygon points="631.6 24.4 631.6 22.9 598.3 40.2 598.3 41.7" class="st0"/>
  <polygon points="631.6 21.9 631.6 20.4 598.3 37.7 598.3 39.2" class="st0"/>
  <polygon points="631.6 19.4 631.6 17.9 598.3 35.2 598.3 36.7" class="st0"/>
  <polygon points="631.6 9 631.6 7.5 598.3 24.8 598.3 26.3" class="st0"/>
  <polygon points="631.6 6.5 631.6 5 598.3 22.3 598.3 23.8" class="st0"/>
  <polygon points="631.6 4 631.6 2.5 598.3 19.8 598.3 21.3" class="st0"/>
  <polygon points="631.6 1.5 631.6 0 598.3 17.3 598.3 18.8" class="st0"/>
  <polygon points="598.3 26.2 598.3 27.7 565.1 10.4 565.1 8.9" class="st0"/>
  <polygon points="598.3 28.7 598.3 30.2 565.1 12.9 565.1 11.4" class="st0"/>
  <polygon points="598.3 31.2 598.3 32.7 565.1 15.4 565.1 13.9" class="st0"/>
  <polygon points="598.3 33.7 598.3 35.2 565.1 17.9 565.1 16.4" class="st0"/>
  <polygon points="598.3 44.2 598.3 45.7 565.1 28.4 565.1 26.9" class="st0"/>
  <polygon points="598.3 46.7 598.3 48.2 565.1 30.9 565.1 29.4" class="st0"/>
  <polygon points="598.3 49.2 598.3 50.7 565.1 33.4 565.1 31.9" class="st0"/>
  <polygon points="598.3 51.7 598.3 53.2 565.1 35.9 565.1 34.4" class="st0"/>
  <polygon points="565.1 26.9 565.1 25.4 531.9 42.7 531.9 44.2" class="st0"/>
  <polygon points="565.1 24.4 565.1 22.9 531.9 40.2 531.9 41.7" class="st0"/>
  <polygon points="565.1 21.9 565.1 20.4 531.9 37.7 531.9 39.2" class="st0"/>
  <polygon points="565.1 19.4 565.1 17.9 531.9 35.2 531.9 36.7" class="st0"/>
  <polygon points="565.1 9 565.1 7.5 531.9 24.8 531.9 26.3" class="st0"/>
  <polygon points="565.1 6.5 565.1 5 531.9 22.3 531.9 23.8" class="st0"/>
  <polygon points="565.1 4 565.1 2.5 531.9 19.8 531.9 21.3" class="st0"/>
  <polygon points="565.1 1.5 565.1 0 531.9 17.3 531.9 18.8" class="st0"/>
  <polygon points="531.9 26.2 531.9 27.7 498.6 10.4 498.6 8.9" class="st0"/>
  <polygon points="531.9 28.7 531.9 30.2 498.6 12.9 498.6 11.4" class="st0"/>
  <polygon points="531.9 31.2 531.9 32.7 498.6 15.4 498.6 13.9" class="st0"/>
  <polygon points="531.9 33.7 531.9 35.2 498.6 17.9 498.6 16.4" class="st0"/>
  <polygon points="531.9 44.2 531.9 45.7 498.6 28.4 498.6 26.9" class="st0"/>
  <polygon points="531.9 46.7 531.9 48.2 498.6 30.9 498.6 29.4" class="st0"/>
  <polygon points="531.9 49.2 531.9 50.7 498.6 33.4 498.6 31.9" class="st0"/>
  <polygon points="531.9 51.7 531.9 53.2 498.6 35.9 498.6 34.4" class="st0"/>
  <polygon points="498.6 26.9 498.6 25.4 465.4 42.7 465.4 44.2" class="st0"/>
  <polygon points="498.6 24.4 498.6 22.9 465.4 40.2 465.4 41.7" class="st0"/>
  <polygon points="498.6 21.9 498.6 20.4 465.4 37.7 465.4 39.2" class="st0"/>
  <polygon points="498.6 19.4 498.6 17.9 465.4 35.2 465.4 36.7" class="st0"/>
  <polygon points="498.6 9 498.6 7.5 465.4 24.8 465.4 26.3" class="st0"/>
  <polygon points="498.6 6.5 498.6 5 465.4 22.3 465.4 23.8" class="st0"/>
  <polygon points="498.6 4 498.6 2.5 465.4 19.8 465.4 21.3" class="st0"/>
  <polygon points="498.6 1.5 498.6 0 465.4 17.3 465.4 18.8" class="st0"/>
  <polygon points="465.4 26.2 465.4 27.7 432.1 10.4 432.1 8.9" class="st0"/>
  <polygon points="465.4 28.7 465.4 30.2 432.1 12.9 432.1 11.4" class="st0"/>
  <polygon points="465.4 31.2 465.4 32.7 432.1 15.4 432.1 13.9" class="st0"/>
  <polygon points="465.4 33.7 465.4 35.2 432.1 17.9 432.1 16.4" class="st0"/>
  <polygon points="465.4 44.2 465.4 45.7 432.1 28.4 432.1 26.9" class="st0"/>
  <polygon points="465.4 46.7 465.4 48.2 432.1 30.9 432.1 29.4" class="st0"/>
  <polygon points="465.4 49.2 465.4 50.7 432.1 33.4 432.1 31.9" class="st0"/>
  <polygon points="465.4 51.7 465.4 53.2 432.1 35.9 432.1 34.4" class="st0"/>
  <polygon points="432.1 26.9 432.1 25.4 398.9 42.7 398.9 44.2" class="st0"/>
  <polygon points="432.1 24.4 432.1 22.9 398.9 40.2 398.9 41.7" class="st0"/>
  <polygon points="432.1 21.9 432.1 20.4 398.9 37.7 398.9 39.2" class="st0"/>
  <polygon points="432.1 19.4 432.1 17.9 398.9 35.2 398.9 36.7" class="st0"/>
  <polygon points="432.1 9 432.1 7.5 398.9 24.8 398.9 26.3" class="st0"/>
  <polygon points="432.1 6.5 432.1 5 398.9 22.3 398.9 23.8" class="st0"/>
  <polygon points="432.1 4 432.1 2.5 398.9 19.8 398.9 21.3" class="st0"/>
  <polygon points="432.1 1.5 432.1 0 398.9 17.3 398.9 18.8" class="st0"/>
  <polygon points="398.9 26.2 398.9 27.7 365.7 10.4 365.7 8.9" class="st0"/>
  <polygon points="398.9 28.7 398.9 30.2 365.7 12.9 365.7 11.4" class="st0"/>
  <polygon points="398.9 31.2 398.9 32.7 365.7 15.4 365.7 13.9" class="st0"/>
  <polygon points="398.9 33.7 398.9 35.2 365.7 17.9 365.7 16.4" class="st0"/>
  <polygon points="398.9 44.2 398.9 45.7 365.7 28.4 365.7 26.9" class="st0"/>
  <polygon points="398.9 46.7 398.9 48.2 365.7 30.9 365.7 29.4" class="st0"/>
  <polygon points="398.9 49.2 398.9 50.7 365.7 33.4 365.7 31.9" class="st0"/>
  <polygon points="398.9 51.7 398.9 53.2 365.7 35.9 365.7 34.4" class="st0"/>
  <polygon points="365.7 26.9 365.7 25.4 332.4 42.7 332.4 44.2" class="st0"/>
  <polygon points="365.7 24.4 365.7 22.9 332.4 40.2 332.4 41.7" class="st0"/>
  <polygon points="365.7 21.9 365.7 20.4 332.4 37.7 332.4 39.2" class="st0"/>
  <polygon points="365.7 19.4 365.7 17.9 332.4 35.2 332.4 36.7" class="st0"/>
  <polygon points="365.7 9 365.7 7.5 332.4 24.8 332.4 26.3" class="st0"/>
  <polygon points="365.7 6.5 365.7 5 332.4 22.3 332.4 23.8" class="st0"/>
  <polygon points="365.7 4 365.7 2.5 332.4 19.8 332.4 21.3" class="st0"/>
  <polygon points="365.7 1.5 365.7 0 332.4 17.3 332.4 18.8" class="st0"/>
  <polygon points="332.4 26.2 332.4 27.7 299.2 10.4 299.2 8.9" class="st0"/>
  <polygon points="332.4 28.7 332.4 30.2 299.2 12.9 299.2 11.4" class="st0"/>
  <polygon points="332.4 31.2 332.4 32.7 299.2 15.4 299.2 13.9" class="st0"/>
  <polygon points="332.4 33.7 332.4 35.2 299.2 17.9 299.2 16.4" class="st0"/>
  <polygon points="332.4 44.2 332.4 45.7 299.2 28.4 299.2 26.9" class="st0"/>
  <polygon points="332.4 46.7 332.4 48.2 299.2 30.9 299.2 29.4" class="st0"/>
  <polygon points="332.4 49.2 332.4 50.7 299.2 33.4 299.2 31.9" class="st0"/>
  <polygon points="332.4 51.7 332.4 53.2 299.2 35.9 299.2 34.4" class="st0"/>
  <polygon points="299.2 26.9 299.2 25.4 265.9 42.7 265.9 44.2" class="st0"/>
  <polygon points="299.2 24.4 299.2 22.9 265.9 40.2 265.9 41.7" class="st0"/>
  <polygon points="299.2 21.9 299.2 20.4 265.9 37.7 265.9 39.2" class="st0"/>
  <polygon points="299.2 19.4 299.2 17.9 265.9 35.2 265.9 36.7" class="st0"/>
  <polygon points="299.2 9 299.2 7.5 265.9 24.8 265.9 26.3" class="st0"/>
  <polygon points="299.2 6.5 299.2 5 265.9 22.3 265.9 23.8" class="st0"/>
  <polygon points="299.2 4 299.2 2.5 265.9 19.8 265.9 21.3" class="st0"/>
  <polygon points="299.2 1.5 299.2 0 265.9 17.3 265.9 18.8" class="st0"/>
  <polygon points="265.9 26.2 265.9 27.7 232.7 10.4 232.7 8.9" class="st0"/>
  <polygon points="265.9 28.7 265.9 30.2 232.7 12.9 232.7 11.4" class="st0"/>
  <polygon points="265.9 31.2 265.9 32.7 232.7 15.4 232.7 13.9" class="st0"/>
  <polygon points="265.9 33.7 265.9 35.2 232.7 17.9 232.7 16.4" class="st0"/>
  <polygon points="265.9 44.2 265.9 45.7 232.7 28.4 232.7 26.9" class="st0"/>
  <polygon points="265.9 46.7 265.9 48.2 232.7 30.9 232.7 29.4" class="st0"/>
  <polygon points="265.9 49.2 265.9 50.7 232.7 33.4 232.7 31.9" class="st0"/>
  <polygon points="265.9 51.7 265.9 53.2 232.7 35.9 232.7 34.4" class="st0"/>
  <polygon points="232.7 26.9 232.7 25.4 199.4 42.7 199.4 44.2" class="st0"/>
  <polygon points="232.7 24.4 232.7 22.9 199.4 40.2 199.4 41.7" class="st0"/>
  <polygon points="232.7 21.9 232.7 20.4 199.4 37.7 199.4 39.2" class="st0"/>
  <polygon points="232.7 19.4 232.7 17.9 199.4 35.2 199.4 36.7" class="st0"/>
  <polygon points="232.7 9 232.7 7.5 199.4 24.8 199.4 26.3" class="st0"/>
  <polygon points="232.7 6.5 232.7 5 199.4 22.3 199.4 23.8" class="st0"/>
  <polygon points="232.7 4 232.7 2.5 199.4 19.8 199.4 21.3" class="st0"/>
  <polygon points="232.7 1.5 232.7 0 199.4 17.3 199.4 18.8" class="st0"/>
  <polygon points="199.4 26.2 199.4 27.7 166.2 10.4 166.2 8.9" class="st0"/>
  <polygon points="199.4 28.7 199.4 30.2 166.2 12.9 166.2 11.4" class="st0"/>
  <polygon points="199.4 31.2 199.4 32.7 166.2 15.4 166.2 13.9" class="st0"/>
  <polygon points="199.4 33.7 199.4 35.2 166.2 17.9 166.2 16.4" class="st0"/>
  <polygon points="199.4 44.2 199.4 45.7 166.2 28.4 166.2 26.9" class="st0"/>
  <polygon points="199.4 46.7 199.4 48.2 166.2 30.9 166.2 29.4" class="st0"/>
  <polygon points="199.4 49.2 199.4 50.7 166.2 33.4 166.2 31.9" class="st0"/>
  <polygon points="199.4 51.7 199.4 53.2 166.2 35.9 166.2 34.4" class="st0"/>
  <polygon points="166.2 26.9 166.2 25.4 133 42.7 133 44.2" class="st0"/>
  <polygon points="166.2 24.4 166.2 22.9 133 40.2 133 41.7" class="st0"/>
  <polygon points="166.2 21.9 166.2 20.4 133 37.7 133 39.2" class="st0"/>
  <polygon points="166.2 19.4 166.2 17.9 133 35.2 133 36.7" class="st0"/>
  <polygon points="166.2 9 166.2 7.5 133 24.8 133 26.3" class="st0"/>
  <polygon points="166.2 6.5 166.2 5 133 22.3 133 23.8" class="st0"/>
  <polygon points="166.2 4 166.2 2.5 133 19.8 133 21.3" class="st0"/>
  <polygon points="166.2 1.5 166.2 0 133 17.3 133 18.8" class="st0"/>
  <polygon points="133 26.2 133 27.7 99.7 10.4 99.7 8.9" class="st0"/>
  <polygon points="133 28.7 133 30.2 99.7 12.9 99.7 11.4" class="st0"/>
  <polygon points="133 31.2 133 32.7 99.7 15.4 99.7 13.9" class="st0"/>
  <polygon points="133 33.7 133 35.2 99.7 17.9 99.7 16.4" class="st0"/>
  <polygon points="133 44.2 133 45.7 99.7 28.4 99.7 26.9" class="st0"/>
  <polygon points="133 46.7 133 48.2 99.7 30.9 99.7 29.4" class="st0"/>
  <polygon points="133 49.2 133 50.7 99.7 33.4 99.7 31.9" class="st0"/>
  <polygon points="133 51.7 133 53.2 99.7 35.9 99.7 34.4" class="st0"/>
  <polygon points="99.7 26.9 99.7 25.4 66.5 42.7 66.5 44.2" class="st0"/>
  <polygon points="99.7 24.4 99.7 22.9 66.5 40.2 66.5 41.7" class="st0"/>
  <polygon points="99.7 21.9 99.7 20.4 66.5 37.7 66.5 39.2" class="st0"/>
  <polygon points="99.7 19.4 99.7 17.9 66.5 35.2 66.5 36.7" class="st0"/>
  <polygon points="99.7 9 99.7 7.5 66.5 24.8 66.5 26.3" class="st0"/>
  <polygon points="99.7 6.5 99.7 5 66.5 22.3 66.5 23.8" class="st0"/>
  <polygon points="99.7 4 99.7 2.5 66.5 19.8 66.5 21.3" class="st0"/>
  <polygon points="99.7 1.5 99.7 0 66.5 17.3 66.5 18.8" class="st0"/>
  <polygon points="66.5 26.2 66.5 27.7 33.2 10.4 33.2 8.9" class="st0"/>
  <polygon points="66.5 28.7 66.5 30.2 33.2 12.9 33.2 11.4" class="st0"/>
  <polygon points="66.5 31.2 66.5 32.7 33.2 15.4 33.2 13.9" class="st0"/>
  <polygon points="66.5 33.7 66.5 35.2 33.2 17.9 33.2 16.4" class="st0"/>
  <polygon points="66.5 44.2 66.5 45.7 33.2 28.4 33.2 26.9" class="st0"/>
  <polygon points="66.5 46.7 66.5 48.2 33.2 30.9 33.2 29.4" class="st0"/>
  <polygon points="66.5 49.2 66.5 50.7 33.2 33.4 33.2 31.9" class="st0"/>
  <polygon points="66.5 51.7 66.5 53.2 33.2 35.9 33.2 34.4" class="st0"/>
  <polygon points="33.2 26.9 33.2 25.4 0 42.7 0 44.2" class="st0"/>
  <polygon points="33.2 24.4 33.2 22.9 0 40.2 0 41.7" class="st0"/>
  <polygon points="33.2 21.9 33.2 20.4 0 37.7 0 39.2" class="st0"/>
  <polygon points="33.2 19.4 33.2 17.9 0 35.2 0 36.7" class="st0"/>
  <polygon points="33.2 9 33.2 7.5 0 24.8 0 26.3" class="st0"/>
  <polygon points="33.2 6.5 33.2 5 0 22.3 0 23.8" class="st0"/>
  <polygon points="33.2 4 33.2 2.5 0 19.8 0 21.3" class="st0"/>
  <polygon points="33.2 1.5 33.2 0 0 17.3 0 18.8" class="st0"/>
 </symbol>
 <symbol id="svg-logo" viewBox="0 0 309.5 241.8">
  <rect transform="matrix(.7071 -.7071 .7071 .7071 -.2056 130.23)" height="13.7" width="64.3" y="58.5" x="124.9" class="st0"/>
  <rect transform="matrix(.7071 -.7071 .7071 .7071 6.5488 99.488)" height="13.7" width="65.4" y="35" x="90.7" class="st0"/>
  <rect transform="matrix(.7071 -.7071 .7071 .7071 -18.003 156.71)" height="13.7" width="67.4" y="93.2" x="146.5" class="st0"/>
  <rect transform="matrix(.707 -.7072 .7072 .707 24.505 140.55)" height="95.3" width="1.7" y="-7" x="181" class="st0"/>
  <rect transform="matrix(.707 -.7072 .7072 .707 26.379 141.32)" height="95.3" width="1.7" y="-8.8" x="182.9" class="st0"/>
  <polygon points="145.5 9.7 212.9 77.1 214.3 75.7 146.9 8.3" class="st0"/>
  <polygon points="222.6 67.4 155.2 0 151.3 3.9 218.7 71.2" class="st0"/>
  <rect transform="matrix(.707 -.7072 .7072 .707 -33.062 116.77)" height="95" width="1.7" y="50.8" x="123.6" class="st0"/>
  <rect transform="matrix(.707 -.7072 .7072 .707 -31.189 117.54)" height="95" width="1.7" y="48.9" x="125.4" class="st0"/>
  <polygon points="164 125.8 96.9 58.6 94 61.5 161.1 128.7" class="st0"/>
  <polygon points="88.2 67.3 155.4 134.5 156.7 133.2 89.5 66" class="st0"/>
  <path class="st0" d="m19.1 180.1v0.9h8.9v0.5h-8.9v0.9h8.9v0.5h-8.9v0.9h8.9v0.4h-8.9v0.9h8.9v0.5h-8.9v0.9h8.9v0.5h-8.9v0.9h8.9v0.5h-8.9v0.9h8.9v0.5h-8.9v28.3h-10.2v-28.3h-8.9v-0.5h8.9v-0.9h-8.9v-0.4h8.9v-1h-8.9v-0.5h8.9v-0.9h-8.9v-0.5h8.9v-0.9h-8.9v-0.4h8.9v-0.9h-8.9v-0.5h8.9v-0.9h-8.9v-0.5h8.9v-0.9h-8.9v-0.5h27.9v0.5h-8.8z"/>
  <path class="st0" d="m51.2 218.1l-9.4-12.1v12.1h-10.2v-38.5h10.1v0.4c1-0.3 2.1-0.4 3.2-0.4 1.8 0 3.6 0.4 5.2 1.1s3 1.7 4.2 2.9 2.2 2.6 2.9 4.2 1.1 3.4 1.1 5.2c0 2.2-0.5 4.2-1.5 6.1s-2.3 3.4-4 4.6l11.2 14.3h-12.8zm-6.2-38c-1.1 0-2.2 0.1-3.2 0.4v0.9c1-0.3 2-0.4 3.2-0.4 1.7 0 3.2 0.3 4.7 0.9s2.7 1.5 3.8 2.6 1.9 2.3 2.6 3.8c0.6 1.5 0.9 3 0.9 4.7s-0.3 3.2-0.9 4.7-1.5 2.7-2.6 3.8-2.3 1.9-3.8 2.6c-1.5 0.6-3 0.9-4.7 0.9-0.6 0-1.2 0-1.7-0.1s-1-0.2-1.5-0.4v1c1.1 0.3 2.2 0.4 3.2 0.4 1.8 0 3.5-0.3 5-1 1.6-0.7 2.9-1.6 4.1-2.8s2.1-2.5 2.8-4.1 1-3.2 1-5-0.3-3.5-1-5c-0.7-1.6-1.6-2.9-2.8-4.1s-2.5-2.1-4.1-2.8c-1.5-0.6-3.2-1-5-1zm-3.2 24c0.5 0.2 1 0.3 1.5 0.4s1.1 0.1 1.7 0.1c1.6 0 3.1-0.3 4.5-0.9s2.6-1.4 3.6-2.5c1-1 1.9-2.3 2.5-3.7s0.9-2.9 0.9-4.5-0.3-3.1-0.9-4.5-1.4-2.6-2.5-3.6c-1-1-2.2-1.9-3.6-2.5s-2.9-0.9-4.5-0.9c-1.2 0-2.3 0.2-3.2 0.5v0.9c1-0.3 2.1-0.5 3.2-0.5 1.5 0 2.8 0.3 4.1 0.8s2.4 1.3 3.4 2.3 1.7 2.1 2.3 3.4c0.5 1.3 0.8 2.7 0.8 4.1 0 1.5-0.3 2.8-0.8 4.1s-1.3 2.4-2.3 3.4-2.1 1.7-3.4 2.3c-1.3 0.5-2.7 0.8-4.1 0.8-1.1 0-2.2-0.2-3.2-0.5v1zm0-1.4c1 0.3 2.1 0.5 3.2 0.5 1.4 0 2.7-0.3 3.9-0.8s2.3-1.3 3.2-2.2 1.7-2 2.2-3.2 0.8-2.5 0.8-3.9-0.3-2.7-0.8-3.9-1.3-2.3-2.2-3.2-2-1.6-3.2-2.2c-1.2-0.5-2.5-0.8-3.9-0.8-1.1 0-2.2 0.2-3.2 0.5v1c1-0.4 2-0.6 3.2-0.6 1.3 0 2.4 0.2 3.6 0.7 1.1 0.5 2.1 1.1 2.9 2 0.8 0.8 1.5 1.8 2 2.9s0.7 2.3 0.7 3.6-0.2 2.5-0.7 3.6-1.1 2.1-2 2.9c-0.8 0.8-1.8 1.5-2.9 2s-2.3 0.7-3.6 0.7c-1.1 0-2.2-0.2-3.2-0.6v1zm0-1.5c1.1 0.4 2.1 0.6 3.2 0.6 1.2 0 2.4-0.2 3.4-0.7s2-1.1 2.8-1.9 1.4-1.7 1.9-2.8 0.7-2.2 0.7-3.4-0.2-2.4-0.7-3.4-1.1-2-1.9-2.8-1.7-1.4-2.8-1.9c-1-0.5-2.2-0.7-3.4-0.7s-2.3 0.2-3.2 0.6v1c0.5-0.2 1-0.4 1.5-0.5s1.1-0.2 1.7-0.2c1.1 0 2.1 0.2 3 0.6 1 0.4 1.8 1 2.5 1.7s1.3 1.6 1.7 2.5c0.4 1 0.6 2 0.6 3 0 1.1-0.2 2.1-0.6 3.1-0.4 0.9-1 1.8-1.7 2.5s-1.6 1.3-2.5 1.7c-1 0.4-2 0.6-3 0.6-1.2 0-2.3-0.2-3.2-0.7v1.1zm0-1.6c0.9 0.5 2 0.8 3.2 0.8 1 0 2-0.2 2.9-0.6s1.7-0.9 2.3-1.6c0.7-0.7 1.2-1.5 1.6-2.3 0.4-0.9 0.6-1.8 0.6-2.8s-0.2-2-0.6-2.9-0.9-1.7-1.6-2.3c-0.7-0.7-1.4-1.2-2.3-1.6s-1.9-0.6-2.9-0.6c-1.2 0-2.2 0.3-3.2 0.8v1c0.5-0.2 1-0.5 1.5-0.6 0.5-0.2 1.1-0.2 1.7-0.2 0.9 0 1.7 0.2 2.5 0.5s1.5 0.8 2.1 1.4 1.1 1.3 1.4 2.1 0.5 1.6 0.5 2.5-0.2 1.7-0.5 2.5-0.8 1.5-1.4 2.1-1.3 1.1-2.1 1.4-1.6 0.5-2.5 0.5c-1.2 0-2.3-0.3-3.2-0.9v0.8zm0-1.5c0.4 0.3 0.9 0.5 1.5 0.7 0.5 0.2 1.1 0.3 1.8 0.3 0.8 0 1.6-0.2 2.3-0.5s1.4-0.7 1.9-1.3c0.5-0.5 1-1.2 1.3-1.9s0.5-1.5 0.5-2.3-0.2-1.6-0.5-2.3-0.7-1.4-1.3-1.9c-0.5-0.5-1.2-1-1.9-1.3s-1.5-0.5-2.3-0.5c-1.3 0-2.3 0.3-3.2 0.9v1.1c0.4-0.3 0.9-0.6 1.5-0.8 0.5-0.2 1.1-0.3 1.8-0.3s1.3 0.1 2 0.4c0.6 0.3 1.2 0.6 1.6 1.1 0.5 0.5 0.8 1 1.1 1.6s0.4 1.3 0.4 2-0.1 1.3-0.4 1.9-0.6 1.1-1.1 1.6-1 0.8-1.6 1.1-1.3 0.4-2 0.4c-1.3 0-2.4-0.4-3.2-1.2v1.2zm0-1.8c0.4 0.4 0.9 0.7 1.4 1 0.5 0.2 1.2 0.4 1.8 0.4 1.3 0 2.4-0.4 3.3-1.3s1.3-2 1.3-3.2c0-1.3-0.4-2.4-1.3-3.3s-2-1.3-3.3-1.3c-0.7 0-1.3 0.1-1.8 0.4-0.5 0.2-1 0.6-1.4 1v1.5c0.3-0.6 0.8-1.1 1.3-1.4 0.6-0.3 1.2-0.5 1.9-0.5 1 0 1.9 0.4 2.6 1.1s1.1 1.6 1.1 2.6-0.4 1.9-1.1 2.6-1.6 1.1-2.6 1.1c-0.7 0-1.4-0.2-1.9-0.5-0.6-0.4-1-0.8-1.3-1.4v1.2zm0-3.3c0 0.9 0.3 1.6 0.9 2.3 0.6 0.6 1.4 0.9 2.3 0.9s1.7-0.3 2.3-0.9 0.9-1.4 0.9-2.3-0.3-1.7-0.9-2.3-1.4-0.9-2.3-0.9-1.7 0.3-2.3 0.9c-0.6 0.7-0.9 1.4-0.9 2.3z"/>
  <path class="st0" d="m82.4 179.6c2.6 0 5.1 0.5 7.4 1.5s4.4 2.4 6.1 4.1 3.1 3.8 4.1 6.1 1.5 4.8 1.5 7.5-0.5 5.2-1.5 7.5c-1 2.3-2.4 4.4-4.1 6.1s-3.8 3.1-6.1 4.1-4.8 1.5-7.4 1.5c-2.7 0-5.2-0.5-7.5-1.5s-4.4-2.4-6.1-4.1-3.1-3.8-4.1-6.1-1.5-4.9-1.5-7.5 0.5-5.2 1.5-7.5c1-2.3 2.4-4.4 4.1-6.1s3.8-3.1 6.1-4.1c2.4-1 4.9-1.5 7.5-1.5zm-9.1 19.3c0 1.3 0.2 2.5 0.7 3.6s1.1 2.1 1.9 2.9 1.8 1.5 2.9 1.9c1.1 0.5 2.3 0.7 3.6 0.7s2.4-0.2 3.5-0.7 2.1-1.1 2.9-1.9 1.5-1.8 1.9-2.9c0.5-1.1 0.7-2.3 0.7-3.6s-0.2-2.4-0.7-3.5-1.1-2.1-1.9-2.9-1.8-1.5-2.9-1.9c-1.1-0.5-2.3-0.7-3.5-0.7-1.3 0-2.5 0.2-3.6 0.7s-2.1 1.1-2.9 1.9-1.5 1.8-1.9 2.9c-0.5 1-0.7 2.2-0.7 3.5zm22.4 13.2c1.8-1.8 3.1-3.8 4.1-6.1 0.9-2.3 1.4-4.7 1.4-7.2s-0.5-4.9-1.4-7.2-2.3-4.3-4.1-6.1-3.8-3.1-6.1-4.1c-2.3-0.9-4.7-1.4-7.2-1.4v0.9c2.4 0 4.7 0.5 6.9 1.4s4 2.2 5.7 3.8c1.6 1.6 2.9 3.5 3.8 5.7s1.4 4.5 1.4 6.9c0 2.5-0.5 4.8-1.4 6.9-0.9 2.2-2.2 4-3.8 5.7-1.6 1.6-3.5 2.9-5.7 3.8s-4.5 1.4-6.9 1.4v0.9c2.5 0 4.9-0.5 7.2-1.4 2.3-0.7 4.3-2.1 6.1-3.9zm-13.3 4.1c2.3 0 4.6-0.4 6.6-1.3 2.1-0.9 4-2.1 5.6-3.8 1.7-1.6 2.9-3.5 3.8-5.6s1.3-4.3 1.3-6.7c0-2.3-0.4-4.6-1.3-6.7s-2.1-4-3.8-5.6-3.5-2.9-5.6-3.8-4.3-1.3-6.6-1.3v0.9c2.3 0 4.4 0.4 6.4 1.3s3.7 2 5.2 3.5 2.7 3.2 3.5 5.2c0.9 2 1.3 4.1 1.3 6.4s-0.4 4.4-1.3 6.4c-0.9 2-2 3.7-3.5 5.2s-3.2 2.7-5.2 3.5c-2 0.9-4.1 1.3-6.4 1.3v1.1zm0-1.3c2.2 0 4.2-0.4 6.1-1.2s3.6-2 5.1-3.5 2.7-3.2 3.5-5.2c0.8-1.9 1.2-4 1.2-6.1s-0.4-4.2-1.2-6.2c-0.8-1.9-2-3.7-3.5-5.2s-3.2-2.7-5.1-3.5-4-1.2-6.1-1.2v0.9c2.1 0 4 0.4 5.8 1.2s3.4 1.9 4.8 3.2c1.4 1.4 2.4 3 3.2 4.8s1.2 3.8 1.2 5.8c0 2.1-0.4 4.1-1.2 5.9s-1.9 3.4-3.2 4.8c-1.4 1.4-3 2.4-4.8 3.2s-3.8 1.2-5.8 1.2v1.1zm0-1.4c2 0 3.8-0.4 5.6-1.1s3.3-1.8 4.7-3.2 2.4-2.9 3.2-4.7c0.7-1.8 1.1-3.7 1.1-5.7s-0.4-3.8-1.1-5.6-1.8-3.3-3.2-4.7-3-2.4-4.7-3.2c-1.8-0.7-3.6-1.1-5.6-1.1v0.9c1.9 0 3.6 0.4 5.3 1.1s3.1 1.7 4.3 2.9 2.2 2.7 2.9 4.4 1.1 3.5 1.1 5.3c0 1.9-0.4 3.7-1.1 5.4s-1.7 3.1-2.9 4.3-2.7 2.2-4.3 2.9c-1.7 0.7-3.4 1.1-5.3 1.1v1zm0-1.4c1.8 0 3.5-0.3 5.1-1s3-1.6 4.2-2.9c1.2-1.2 2.2-2.6 2.8-4.2 0.7-1.6 1-3.3 1-5.1s-0.3-3.5-1-5.1-1.6-3-2.8-4.2c-1.2-1.3-2.6-2.2-4.2-2.9s-3.3-1-5.1-1v0.9c1.7 0 3.3 0.3 4.8 1 1.5 0.6 2.8 1.5 3.9 2.7 1.1 1.1 2 2.4 2.6 3.9s1 3.1 1 4.8-0.3 3.3-1 4.8c-0.6 1.5-1.5 2.8-2.6 3.9s-2.4 2-3.9 2.6-3.1 1-4.8 1v0.8zm0-1.4c1.6 0 3.1-0.3 4.6-0.9 1.4-0.6 2.7-1.5 3.8-2.6s1.9-2.4 2.6-3.8c0.6-1.4 0.9-3 0.9-4.6s-0.3-3.2-0.9-4.6-1.5-2.7-2.6-3.8-2.4-1.9-3.8-2.6c-1.4-0.6-3-0.9-4.6-0.9v0.9c1.5 0 2.9 0.3 4.2 0.9s2.5 1.4 3.5 2.3c1 1 1.8 2.1 2.3 3.5 0.6 1.3 0.9 2.7 0.9 4.2s-0.3 3-0.9 4.3-1.4 2.5-2.3 3.5c-1 1-2.1 1.8-3.5 2.3-1.3 0.6-2.7 0.9-4.2 0.9v1zm0-1.3c1.4 0 2.8-0.3 4.1-0.8s2.4-1.3 3.3-2.2c1-1 1.7-2.1 2.3-3.4 0.5-1.3 0.8-2.6 0.8-4.1 0-1.4-0.3-2.8-0.8-4.1s-1.3-2.4-2.3-3.4c-0.9-1-2-1.7-3.3-2.3-1.3-0.5-2.6-0.8-4.1-0.8v0.9c1.3 0 2.6 0.3 3.7 0.8 1.2 0.5 2.2 1.2 3 2 0.9 0.9 1.5 1.9 2 3.1s0.8 2.4 0.8 3.7-0.3 2.6-0.8 3.7c-0.5 1.2-1.2 2.2-2 3.1-0.9 0.9-1.9 1.6-3 2.1-1.2 0.5-2.4 0.8-3.7 0.8v0.9z"/>
  <path class="st0" d="m137.7 212c-1.8 1.9-3.9 3.4-6.2 4.4-2.4 1.1-5 1.6-7.7 1.6s-5.2-0.5-7.5-1.5-4.4-2.4-6.1-4.1-3.1-3.8-4.1-6.1-1.5-4.9-1.5-7.5 0.5-5.2 1.5-7.5c1-2.3 2.4-4.4 4.1-6.1s3.8-3.1 6.1-4.1 4.9-1.5 7.5-1.5c2.8 0 5.4 0.5 7.7 1.6 2.4 1.1 4.5 2.6 6.2 4.4l-0.3 0.3c-1.9-1.9-4-3.3-6.2-4.4-2.3-1-4.8-1.5-7.4-1.5v0.9c2.6 0 5 0.5 7.2 1.5s4.2 2.4 5.8 4.1l-0.3 0.3c-1.8-1.7-3.7-3.1-5.8-4-2.1-1-4.4-1.5-6.9-1.5v0.9c2.4 0 4.6 0.5 6.6 1.4 2.1 0.9 3.8 2.2 5.3 3.8l-0.3 0.3c-1.6-1.6-3.4-2.8-5.3-3.7s-4.1-1.3-6.3-1.3v0.9c2.2 0 4.2 0.4 6 1.2s3.5 2 5 3.6l-0.3 0.3c-1.4-1.4-3-2.5-4.7-3.4-1.7-0.8-3.7-1.3-6-1.3v0.9c2 0 3.8 0.4 5.5 1.2s3.2 1.8 4.5 3.2l-0.3 0.3c-1.4-1.5-2.9-2.6-4.5-3.2s-3.3-1-5.2-1.1v0.9c1.8 0 3.5 0.4 5 1.1s2.9 1.7 4 2.8l-0.3 0.3c-1.2-1.2-2.5-2.1-3.9-2.8s-3-1-4.8-1v0.9c1.6 0 3.1 0.3 4.5 0.9s2.6 1.5 3.6 2.5l-0.3 0.3c-1-1-2.2-1.8-3.5-2.4s-2.7-0.9-4.2-0.9v0.9c1.4 0 2.7 0.3 3.9 0.8s2.2 1.3 3.1 2.3l-0.3 0.3c-0.8-0.9-1.8-1.6-3-2.2-1.2-0.5-2.4-0.8-3.7-0.8s-2.5 0.2-3.6 0.7-2.1 1.1-2.9 1.9-1.5 1.8-1.9 2.9c-0.5 1.1-0.7 2.3-0.7 3.5 0 1.3 0.2 2.5 0.7 3.6s1.1 2.1 1.9 2.9 1.8 1.5 2.9 1.9c1.1 0.5 2.3 0.7 3.6 0.7s2.6-0.3 3.7-0.8c1.2-0.5 2.1-1.3 3-2.2l0.4 0.3c-0.9 1-2 1.7-3.1 2.3-1.2 0.5-2.5 0.8-3.9 0.8v0.9c1.6 0 3-0.3 4.2-0.9 1.3-0.6 2.4-1.4 3.5-2.4l0.3 0.3c-1 1.1-2.2 2-3.6 2.6s-2.9 0.9-4.5 0.9v0.9c1.8 0 3.3-0.3 4.8-1 1.4-0.7 2.7-1.6 3.9-2.8l0.3 0.3c-1.1 1.2-2.5 2.1-4 2.8s-3.2 1.1-5 1.1v0.9c1.9 0 3.7-0.4 5.3-1.1 1.6-0.8 3.1-1.8 4.4-3.1l0.3 0.3c-1.3 1.3-2.7 2.4-4.5 3.2-1.7 0.8-3.6 1.2-5.5 1.2v0.9c2 0 3.8-0.4 5.6-1.1s3.3-1.8 4.7-3.2l0.2-0.2c0-0.1 0.1-0.1 0.2-0.2l0.3 0.3c-1.4 1.5-3 2.7-4.9 3.5s-3.9 1.3-6.1 1.3v0.9c2.2 0 4.2-0.4 6.2-1.2 1.9-0.8 3.7-1.9 5.2-3.5l0.2-0.2c0-0.1 0.1-0.1 0.2-0.2l0.4 0.3c-1.5 1.6-3.3 2.9-5.4 3.8s-4.3 1.4-6.7 1.4v0.9c2.5 0 4.8-0.5 6.9-1.4 2.1-1 4-2.3 5.8-4.1l0.3 0.3c-1.6 1.8-3.6 3.1-5.8 4.1s-4.6 1.5-7.2 1.5v0.9c2.7 0 5.2-0.5 7.4-1.5 2.3-1 4.3-2.5 6.2-4.4l0.1 1.3z"/>
  <path class="st0" d="m160.6 179.6l13.2 38.5h-10.7l-1.2-3.4h-11.1l-0.9 3.4h-0.5l6.1-22.1-0.6-1.6-6.5 23.8h-0.5l6.8-24.5-0.6-1.6-7.1 26.2h-0.5l7.4-26.9-0.6-1.6-7.8 28.5h-0.5l8.1-29.2-0.6-1.7-8.5 30.9h-0.5l8.7-31.6-0.6-1.7-9.2 33.3h-0.4l9.4-34-0.6-1.7-9.8 35.7h-0.5l10-36.4-0.5-1.9-10.5 38.1h-0.5l10.6-38.5h11zm-4.9 17.1l-2.8 10.1h6.3l-3.5-10.1z"/>
  <path class="st0" d="m176.5 179.6h11.7c2.7 0 5.2 0.5 7.5 1.5s4.4 2.4 6.1 4.1 3.1 3.8 4.1 6.1 1.5 4.8 1.5 7.5-0.5 5.2-1.5 7.5c-1 2.3-2.4 4.4-4.1 6.1s-3.8 3.1-6.1 4.1-4.9 1.5-7.5 1.5h-11.7v-38.4zm25 32.5c1.8-1.8 3.1-3.8 4.1-6.1 0.9-2.3 1.4-4.7 1.4-7.2s-0.5-4.9-1.4-7.2-2.3-4.3-4.1-6.1-3.8-3.1-6.1-4.1c-2.3-0.9-4.7-1.4-7.2-1.4h-1.6v0.9c0.3 0 0.5-0.1 0.8-0.1h0.8c2.5 0 4.8 0.5 7 1.4s4.1 2.2 5.7 3.8 2.9 3.5 3.8 5.7 1.4 4.5 1.4 6.9c0 2.5-0.5 4.8-1.4 7s-2.2 4.1-3.8 5.7-3.5 2.9-5.7 3.8-4.5 1.4-7 1.4h-1.6v0.9h1.6c2.5 0 4.9-0.5 7.2-1.4 2.3-0.7 4.3-2.1 6.1-3.9zm-14.8 4.1c0.3 0 0.5 0.1 0.8 0.1h0.8c2.3 0 4.6-0.4 6.7-1.3s4-2.1 5.7-3.8c1.6-1.6 2.9-3.5 3.8-5.6s1.3-4.3 1.3-6.7c0-2.3-0.4-4.6-1.3-6.7s-2.1-4-3.8-5.6c-1.7-1.7-3.5-2.9-5.7-3.8-2.1-0.9-4.3-1.3-6.7-1.3h-0.8c-0.3 0-0.5 0-0.8 0.1v0.9h1.6c2.3 0 4.4 0.4 6.4 1.3s3.8 2 5.3 3.5 2.7 3.2 3.5 5.2c0.9 2 1.3 4.1 1.3 6.4s-0.4 4.4-1.3 6.4c-0.9 2-2 3.7-3.5 5.2s-3.3 2.7-5.3 3.5c-2 0.9-4.1 1.3-6.4 1.3h-1.6v0.9zm0-1.4h1.6c2.2 0 4.3-0.4 6.2-1.2s3.7-1.9 5.2-3.5c1.5-1.5 2.7-3.2 3.5-5.2s1.2-4 1.2-6.2-0.4-4.2-1.2-6.2c-0.8-1.9-2-3.7-3.5-5.2s-3.2-2.7-5.2-3.4c-1.9-0.8-4-1.2-6.2-1.2h-1.6v0.9c0.3 0 0.5-0.1 0.8-0.1h0.8c2.1 0 4.1 0.4 5.9 1.2s3.5 1.9 4.8 3.2c1.4 1.4 2.4 3 3.2 4.8s1.2 3.8 1.2 5.8c0 2.1-0.4 4.1-1.2 5.9s-1.9 3.4-3.2 4.8c-1.4 1.4-3 2.4-4.8 3.2s-3.8 1.2-5.9 1.2h-0.8c-0.3 0-0.5 0-0.8-0.1v1.3zm0-1.4c0.3 0 0.5 0.1 0.8 0.1h0.8c2 0 3.9-0.4 5.7-1.1s3.3-1.8 4.7-3.2 2.4-2.9 3.2-4.7 1.1-3.7 1.1-5.7-0.4-3.8-1.1-5.6c-0.8-1.8-1.8-3.3-3.2-4.7s-3-2.4-4.7-3.2c-1.8-0.7-3.7-1.1-5.7-1.1h-0.8c-0.3 0-0.5 0-0.8 0.1v0.9c0.3 0 0.5-0.1 0.8-0.1h0.8c1.9 0 3.7 0.4 5.4 1.1s3.1 1.7 4.4 2.9c1.2 1.2 2.2 2.7 2.9 4.4s1.1 3.5 1.1 5.3c0 1.9-0.4 3.7-1.1 5.4s-1.7 3.1-2.9 4.4c-1.2 1.2-2.7 2.2-4.4 2.9s-3.5 1.1-5.4 1.1h-0.8c-0.3 0-0.5 0-0.8-0.1v0.9zm0-1.4c0.3 0 0.5 0.1 0.8 0.1h0.8c1.8 0 3.5-0.3 5.1-1s3-1.6 4.3-2.9c1.2-1.2 2.2-2.6 2.8-4.3 0.7-1.6 1-3.3 1-5.1s-0.3-3.5-1-5.1-1.6-3-2.8-4.2c-1.3-1.3-2.7-2.2-4.3-2.9s-3.3-1-5.1-1h-0.8c-0.3 0-0.5 0-0.8 0.1v0.9c0.3-0.1 0.5-0.1 0.8-0.1h0.8c1.7 0 3.3 0.3 4.8 1 1.5 0.6 2.8 1.5 3.9 2.6s2 2.4 2.7 3.9c0.6 1.5 1 3.1 1 4.8s-0.3 3.3-1 4.8c-0.6 1.5-1.5 2.8-2.7 3.9-1.1 1.1-2.4 2-3.9 2.6s-3.1 1-4.8 1h-0.8c-0.3 0-0.5 0-0.8-0.1v1zm0-1.4c0.3 0.1 0.5 0.1 0.8 0.1h0.8c1.6 0 3.2-0.3 4.6-0.9 1.5-0.6 2.7-1.5 3.8-2.6s1.9-2.4 2.6-3.8c0.6-1.4 0.9-3 0.9-4.6s-0.3-3.2-0.9-4.6-1.5-2.7-2.6-3.8-2.4-1.9-3.8-2.6c-1.5-0.6-3-0.9-4.6-0.9-0.5 0-1 0-1.5 0.1v0.9c0.3 0 0.5-0.1 0.8-0.1h0.8c1.5 0 3 0.3 4.3 0.9s2.5 1.4 3.5 2.3c1 1 1.8 2.1 2.4 3.5 0.6 1.3 0.9 2.7 0.9 4.2s-0.3 3-0.9 4.3-1.4 2.5-2.4 3.5-2.2 1.8-3.5 2.3c-1.3 0.6-2.8 0.9-4.3 0.9h-0.8c-0.3 0-0.5 0-0.8-0.1v1zm0-1.3c0.3 0 0.5 0.1 0.8 0.1h0.8c1.4 0 2.8-0.3 4.1-0.8s2.4-1.3 3.4-2.3 1.7-2.1 2.3-3.4c0.5-1.3 0.8-2.6 0.8-4.1 0-1.4-0.3-2.8-0.8-4.1s-1.3-2.4-2.3-3.4-2.1-1.7-3.4-2.3c-1.3-0.5-2.6-0.8-4.1-0.8h-0.8c-0.3 0-0.5 0-0.8 0.1v0.9c0.5-0.1 1-0.1 1.5-0.1 1.3 0 2.6 0.3 3.8 0.8s2.2 1.2 3.1 2c0.9 0.9 1.6 1.9 2.1 3.1s0.8 2.4 0.8 3.7-0.3 2.6-0.8 3.7c-0.5 1.2-1.2 2.2-2.1 3.1s-1.9 1.6-3.1 2.1-2.4 0.8-3.8 0.8c-0.5 0-1 0-1.5-0.1v1zm0-1.4c0.5 0.1 1 0.1 1.5 0.1 1.3 0 2.4-0.2 3.6-0.7 1.1-0.5 2.1-1.1 2.9-1.9s1.5-1.8 1.9-2.9c0.5-1.1 0.7-2.3 0.7-3.6s-0.2-2.4-0.7-3.5-1.1-2.1-1.9-2.9-1.8-1.5-2.9-1.9c-1.1-0.5-2.3-0.7-3.6-0.7-0.5 0-1 0-1.5 0.1v17.9z"/>
  <path class="st0" d="m220.4 180.1v0.9h15.5v0.5h-15.5v0.9h15.5v0.5h-15.5v0.9h15.5v0.5h-15.5v0.9h15.5v0.5h-15.5v0.9h15.5v0.5h-15.5v0.9h15.5v0.5h-15.5v0.9h15.5v0.5h-15.5v5.2h11.8v9.1h-11.8v4h15.5v0.5h-15.5v0.9h15.5v0.5h-15.5v0.9h15.5v0.4h-15.5v0.9h15.5v0.5h-15.5v0.9h15.5v0.5h-15.5v0.9h15.5v0.5h-15.5v0.9h15.5v0.4h-15.5v0.9h15.5v0.5h-25.6v-38.5h25.6v0.5h-15.5zm-0.8-13.6l-2.8 10.1h-0.5l2.8-10.1h0.5zm1.5 0l-2.8 10.1h-0.5l2.8-10.1h0.5zm1.5 0l-2.8 10.1h-0.5l2.8-10.1h0.5zm1.4 0l-2.8 10.1h-0.5l2.8-10.1h0.5zm1.5 0l-2.8 10.1h-0.5l2.8-10.1h0.5zm1.5 0l-2.8 10.1h-0.5l2.8-10.1h0.5zm1.5 0l-2.8 10.1h-0.5l2.8-10.1h0.5zm1.5 0l-2.8 10.1h-0.5l2.8-10.1h0.5z"/>
  <path class="st0" d="m259.1 218.1l-9.4-12.1v12.1h-10.1v-38.5h10.1v0.4c1-0.3 2.1-0.4 3.2-0.4 1.8 0 3.6 0.4 5.2 1.1s3 1.7 4.2 2.9 2.2 2.6 2.9 4.2 1.1 3.4 1.1 5.2c0 2.2-0.5 4.2-1.5 6.1s-2.3 3.4-4 4.6l11.2 14.3h-12.9zm-6.2-38c-1.1 0-2.2 0.1-3.2 0.4v0.9c1-0.3 2-0.4 3.2-0.4 1.7 0 3.2 0.3 4.7 0.9s2.7 1.5 3.8 2.6 1.9 2.3 2.6 3.8c0.6 1.5 0.9 3 0.9 4.7s-0.3 3.2-0.9 4.7-1.5 2.7-2.6 3.8-2.3 1.9-3.8 2.6c-1.5 0.6-3 0.9-4.7 0.9-0.6 0-1.2 0-1.7-0.1s-1-0.2-1.5-0.4v1c1.1 0.3 2.2 0.4 3.2 0.4 1.8 0 3.5-0.3 5-1 1.6-0.7 2.9-1.6 4.1-2.8s2.1-2.5 2.8-4.1 1-3.2 1-5-0.3-3.5-1-5c-0.7-1.6-1.6-2.9-2.8-4.1s-2.5-2.1-4.1-2.8c-1.5-0.6-3.2-1-5-1zm-3.2 24c0.5 0.2 1 0.3 1.5 0.4s1.1 0.1 1.7 0.1c1.6 0 3.1-0.3 4.5-0.9s2.6-1.4 3.6-2.5c1-1 1.9-2.3 2.5-3.7s0.9-2.9 0.9-4.5-0.3-3.1-0.9-4.5-1.4-2.6-2.5-3.6c-1-1-2.2-1.9-3.6-2.5s-2.9-0.9-4.5-0.9c-1.2 0-2.3 0.2-3.2 0.5v0.9c1-0.3 2.1-0.5 3.2-0.5 1.5 0 2.8 0.3 4.1 0.8s2.4 1.3 3.4 2.3 1.7 2.1 2.3 3.4c0.5 1.3 0.8 2.7 0.8 4.1 0 1.5-0.3 2.8-0.8 4.1s-1.3 2.4-2.3 3.4-2.1 1.7-3.4 2.3c-1.3 0.5-2.7 0.8-4.1 0.8-1.1 0-2.2-0.2-3.2-0.5v1zm0-1.4c1 0.3 2.1 0.5 3.2 0.5 1.4 0 2.7-0.3 3.9-0.8s2.3-1.3 3.2-2.2 1.6-2 2.2-3.2c0.5-1.2 0.8-2.5 0.8-3.9s-0.3-2.7-0.8-3.9-1.3-2.3-2.2-3.2-2-1.6-3.2-2.2c-1.2-0.5-2.5-0.8-3.9-0.8-1.1 0-2.2 0.2-3.2 0.5v1c1-0.4 2-0.6 3.2-0.6 1.3 0 2.4 0.2 3.6 0.7 1.1 0.5 2.1 1.1 2.9 2 0.8 0.8 1.5 1.8 2 2.9s0.7 2.3 0.7 3.6-0.2 2.5-0.7 3.6-1.1 2.1-2 2.9c-0.8 0.8-1.8 1.5-2.9 2s-2.3 0.7-3.6 0.7c-1.1 0-2.2-0.2-3.2-0.6v1zm0-1.5c1.1 0.4 2.1 0.6 3.2 0.6 1.2 0 2.4-0.2 3.4-0.7s2-1.1 2.8-1.9 1.4-1.7 1.9-2.8 0.7-2.2 0.7-3.4-0.2-2.4-0.7-3.4-1.1-2-1.9-2.8-1.7-1.4-2.8-1.9c-1-0.5-2.2-0.7-3.4-0.7s-2.3 0.2-3.2 0.6v1c0.5-0.2 1-0.4 1.5-0.5s1.1-0.2 1.7-0.2c1.1 0 2.1 0.2 3 0.6 1 0.4 1.8 1 2.5 1.7s1.3 1.6 1.7 2.5c0.4 1 0.6 2 0.6 3 0 1.1-0.2 2.1-0.6 3.1-0.4 0.9-1 1.8-1.7 2.5s-1.6 1.3-2.5 1.7c-1 0.4-2 0.6-3 0.6-1.2 0-2.3-0.2-3.2-0.7v1.1zm0-1.6c0.9 0.5 2 0.8 3.2 0.8 1 0 2-0.2 2.9-0.6s1.7-0.9 2.3-1.6c0.7-0.7 1.2-1.5 1.6-2.3 0.4-0.9 0.6-1.8 0.6-2.8s-0.2-2-0.6-2.9-0.9-1.7-1.6-2.3c-0.7-0.7-1.4-1.2-2.3-1.6s-1.9-0.6-2.9-0.6c-1.2 0-2.2 0.3-3.2 0.8v1c0.5-0.2 1-0.5 1.5-0.6 0.5-0.2 1.1-0.2 1.7-0.2 0.9 0 1.7 0.2 2.5 0.5s1.5 0.8 2.1 1.4 1.1 1.3 1.4 2.1 0.5 1.6 0.5 2.5-0.2 1.7-0.5 2.5-0.8 1.5-1.4 2.1-1.3 1.1-2.1 1.4-1.6 0.5-2.5 0.5c-1.2 0-2.3-0.3-3.2-0.9v0.8zm0-1.5c0.4 0.3 0.9 0.5 1.5 0.7 0.5 0.2 1.1 0.3 1.8 0.3 0.8 0 1.6-0.2 2.3-0.5s1.4-0.7 1.9-1.3c0.5-0.5 1-1.2 1.3-1.9s0.5-1.5 0.5-2.3-0.2-1.6-0.5-2.3-0.7-1.4-1.3-1.9c-0.5-0.5-1.2-1-1.9-1.3s-1.5-0.5-2.3-0.5c-1.3 0-2.3 0.3-3.2 0.9v1.1c0.4-0.3 0.9-0.6 1.5-0.8 0.5-0.2 1.1-0.3 1.8-0.3s1.3 0.1 2 0.4c0.6 0.3 1.2 0.6 1.6 1.1 0.5 0.5 0.8 1 1.1 1.6s0.4 1.3 0.4 2-0.1 1.3-0.4 1.9-0.6 1.1-1.1 1.6-1 0.8-1.6 1.1-1.3 0.4-2 0.4c-1.3 0-2.4-0.4-3.2-1.2v1.2zm0-1.8c0.4 0.4 0.9 0.7 1.4 1 0.5 0.2 1.2 0.4 1.8 0.4 1.3 0 2.4-0.4 3.3-1.3s1.3-2 1.3-3.2c0-1.3-0.4-2.4-1.3-3.3s-2-1.3-3.3-1.3c-0.7 0-1.3 0.1-1.8 0.4s-1 0.6-1.4 1v1.5c0.3-0.6 0.8-1.1 1.3-1.4 0.6-0.3 1.2-0.5 1.9-0.5 1 0 1.9 0.4 2.6 1.1s1.1 1.6 1.1 2.6-0.4 1.9-1.1 2.6-1.6 1.1-2.6 1.1c-0.7 0-1.4-0.2-1.9-0.5-0.6-0.4-1-0.8-1.3-1.4v1.2zm0-3.3c0 0.9 0.3 1.6 0.9 2.3 0.6 0.6 1.4 0.9 2.3 0.9s1.7-0.3 2.3-0.9 0.9-1.4 0.9-2.3-0.3-1.7-0.9-2.3-1.4-0.9-2.3-0.9-1.7 0.3-2.3 0.9c-0.6 0.7-0.9 1.4-0.9 2.3z"/>
  <path class="st0" d="m290.3 179.6c2.6 0 5.1 0.5 7.4 1.5s4.4 2.4 6.1 4.1 3.1 3.8 4.1 6.1 1.5 4.8 1.5 7.5-0.5 5.2-1.5 7.5c-1 2.3-2.4 4.4-4.1 6.1s-3.8 3.1-6.1 4.1-4.8 1.5-7.4 1.5c-2.7 0-5.2-0.5-7.5-1.5s-4.4-2.4-6.1-4.1-3.1-3.8-4.1-6.1-1.5-4.9-1.5-7.5 0.5-5.2 1.5-7.5c1-2.3 2.4-4.4 4.1-6.1s3.8-3.1 6.1-4.1c2.4-1 4.9-1.5 7.5-1.5zm-9.1 19.3c0 1.3 0.2 2.5 0.7 3.6s1.1 2.1 1.9 2.9 1.8 1.5 2.9 1.9c1.1 0.5 2.3 0.7 3.6 0.7s2.4-0.2 3.5-0.7 2.1-1.1 2.9-1.9 1.5-1.8 1.9-2.9c0.5-1.1 0.7-2.3 0.7-3.6s-0.2-2.4-0.7-3.5-1.1-2.1-1.9-2.9-1.8-1.5-2.9-1.9c-1.1-0.5-2.3-0.7-3.5-0.7-1.3 0-2.5 0.2-3.6 0.7s-2.1 1.1-2.9 1.9-1.5 1.8-1.9 2.9c-0.5 1-0.7 2.2-0.7 3.5zm22.4 13.2c1.8-1.8 3.1-3.8 4.1-6.1 0.9-2.3 1.4-4.7 1.4-7.2s-0.5-4.9-1.4-7.2-2.3-4.3-4.1-6.1-3.8-3.1-6.1-4.1c-2.3-0.9-4.7-1.4-7.2-1.4v0.9c2.4 0 4.7 0.5 6.9 1.4s4 2.2 5.7 3.8c1.6 1.6 2.9 3.5 3.8 5.7s1.4 4.5 1.4 6.9c0 2.5-0.5 4.8-1.4 6.9-0.9 2.2-2.2 4-3.8 5.7-1.6 1.6-3.5 2.9-5.7 3.8s-4.5 1.4-6.9 1.4v0.9c2.5 0 4.9-0.5 7.2-1.4 2.3-0.7 4.3-2.1 6.1-3.9zm-13.3 4.1c2.3 0 4.6-0.4 6.6-1.3 2.1-0.9 4-2.1 5.6-3.8 1.7-1.6 2.9-3.5 3.8-5.6s1.3-4.3 1.3-6.7c0-2.3-0.4-4.6-1.3-6.7s-2.1-4-3.8-5.6-3.5-2.9-5.6-3.8-4.3-1.3-6.6-1.3v0.9c2.3 0 4.4 0.4 6.4 1.3s3.7 2 5.2 3.5 2.7 3.2 3.5 5.2c0.9 2 1.3 4.1 1.3 6.4s-0.4 4.4-1.3 6.4c-0.9 2-2 3.7-3.5 5.2s-3.2 2.7-5.2 3.5c-2 0.9-4.1 1.3-6.4 1.3v1.1zm0-1.3c2.2 0 4.2-0.4 6.1-1.2s3.6-2 5.1-3.5 2.7-3.2 3.5-5.2c0.8-1.9 1.2-4 1.2-6.1s-0.4-4.2-1.2-6.2c-0.8-1.9-2-3.7-3.5-5.2s-3.2-2.7-5.1-3.5-4-1.2-6.1-1.2v0.9c2.1 0 4 0.4 5.8 1.2s3.4 1.9 4.8 3.2c1.4 1.4 2.4 3 3.2 4.8s1.2 3.8 1.2 5.8c0 2.1-0.4 4.1-1.2 5.9s-1.9 3.4-3.2 4.8c-1.4 1.4-3 2.4-4.8 3.2s-3.8 1.2-5.8 1.2v1.1zm0-1.4c2 0 3.8-0.4 5.6-1.1s3.3-1.8 4.7-3.2 2.4-2.9 3.2-4.7c0.7-1.8 1.1-3.7 1.1-5.7s-0.4-3.8-1.1-5.6-1.8-3.3-3.2-4.7-3-2.4-4.7-3.2c-1.8-0.7-3.6-1.1-5.6-1.1v0.9c1.9 0 3.6 0.4 5.3 1.1s3.1 1.7 4.3 2.9 2.2 2.7 2.9 4.4 1.1 3.5 1.1 5.3c0 1.9-0.4 3.7-1.1 5.4s-1.7 3.1-2.9 4.3-2.7 2.2-4.3 2.9c-1.7 0.7-3.4 1.1-5.3 1.1v1zm0-1.4c1.8 0 3.5-0.3 5.1-1s3-1.6 4.2-2.9c1.2-1.2 2.2-2.6 2.8-4.2 0.7-1.6 1-3.3 1-5.1s-0.3-3.5-1-5.1-1.6-3-2.8-4.2c-1.2-1.3-2.6-2.2-4.2-2.9s-3.3-1-5.1-1v0.9c1.7 0 3.3 0.3 4.8 1 1.5 0.6 2.8 1.5 3.9 2.7 1.1 1.1 2 2.4 2.6 3.9s1 3.1 1 4.8-0.3 3.3-1 4.8c-0.6 1.5-1.5 2.8-2.6 3.9s-2.4 2-3.9 2.6-3.1 1-4.8 1v0.8zm0-1.4c1.6 0 3.1-0.3 4.6-0.9 1.4-0.6 2.7-1.5 3.8-2.6s1.9-2.4 2.6-3.8c0.6-1.4 0.9-3 0.9-4.6s-0.3-3.2-0.9-4.6-1.5-2.7-2.6-3.8-2.4-1.9-3.8-2.6c-1.4-0.6-3-0.9-4.6-0.9v0.9c1.5 0 2.9 0.3 4.2 0.9s2.5 1.4 3.5 2.3c1 1 1.8 2.1 2.3 3.5 0.6 1.3 0.9 2.7 0.9 4.2s-0.3 3-0.9 4.3-1.4 2.5-2.3 3.5c-1 1-2.1 1.8-3.5 2.3-1.3 0.6-2.7 0.9-4.2 0.9v1zm0-1.3c1.4 0 2.8-0.3 4.1-0.8s2.4-1.3 3.3-2.2c1-1 1.7-2.1 2.3-3.4 0.5-1.3 0.8-2.6 0.8-4.1 0-1.4-0.3-2.8-0.8-4.1s-1.3-2.4-2.3-3.4c-0.9-1-2-1.7-3.3-2.3-1.3-0.5-2.6-0.8-4.1-0.8v0.9c1.3 0 2.6 0.3 3.7 0.8 1.2 0.5 2.2 1.2 3 2 0.9 0.9 1.5 1.9 2 3.1s0.8 2.4 0.8 3.7-0.3 2.6-0.8 3.7c-0.5 1.2-1.2 2.2-2 3.1-0.9 0.9-1.9 1.6-3 2.1-1.2 0.5-2.4 0.8-3.7 0.8v0.9z"/>
  <path class="st0" d="m115.4 155.6c1.7 0 2.9 0.6 4.1 1.6 0.2 0.1 0.2 0.3 0 0.5l-0.7 0.8c-0.1 0.2-0.3 0.2-0.4 0-0.8-0.7-1.9-1.1-2.9-1.1-2.4 0-4.2 2-4.2 4.4s1.8 4.3 4.2 4.3c1.2 0 2.1-0.5 2.9-1.1 0.2-0.1 0.3-0.1 0.4 0l0.8 0.8c0.1 0.1 0.1 0.3 0 0.5-1.1 1.1-2.6 1.6-4.1 1.6-3.4 0-6.1-2.7-6.1-6 0-3.6 2.7-6.3 6-6.3z"/>
  <path class="st0" d="m124.6 167.1l5.2-11.3c0.1-0.1 0.2-0.2 0.3-0.2h0.2c0.1 0 0.2 0.1 0.3 0.2l5.1 11.3c0.1 0.2 0 0.4-0.3 0.4h-1.1c-0.2 0-0.3-0.1-0.4-0.3l-1-2.3h-5.5l-1 2.3c-0.1 0.1-0.2 0.3-0.4 0.3h-1.1c-0.3 0-0.4-0.2-0.3-0.4zm7.6-3.6l-2.1-4.6h-0.1l-2 4.6h4.2z"/>
  <path class="st0" d="m141.4 156.1c0-0.2 0.1-0.3 0.3-0.3h6.7c0.2 0 0.3 0.2 0.3 0.3v0.9c0 0.2-0.1 0.3-0.3 0.3h-5.3v3.9h4.5c0.2 0 0.3 0.2 0.3 0.3v0.9c0 0.2-0.2 0.3-0.3 0.3h-4.5v4.4c0 0.2-0.2 0.3-0.3 0.3h-1.1c-0.2 0-0.3-0.2-0.3-0.3v-11z"/>
  <path class="st0" d="m155 156.1c0-0.2 0.1-0.3 0.3-0.3h6.7c0.2 0 0.3 0.2 0.3 0.3v0.9c0 0.2-0.1 0.3-0.3 0.3h-5.3v3.4h4.5c0.2 0 0.3 0.2 0.3 0.3v0.9c0 0.2-0.2 0.3-0.3 0.3h-4.5v3.6h5.3c0.2 0 0.3 0.2 0.3 0.3v0.9c0 0.2-0.1 0.3-0.3 0.3h-6.7c-0.2 0-0.3-0.2-0.3-0.3v-10.9zm2-1.6l-0.2-0.5c-0.1-0.1 0-0.3 0.1-0.3l2.6-1.5c0.1-0.1 0.4-0.1 0.4 0.1l0.4 0.7c0.1 0.2 0 0.3-0.1 0.4l-2.8 1.2c-0.2 0-0.3 0-0.4-0.1z"/>
  <path class="st0" d="m177 156.1c0-0.2 0.1-0.3 0.3-0.3h3.9c3.2 0 5.9 2.6 5.9 5.9s-2.7 5.9-5.9 5.9h-3.9c-0.2 0-0.3-0.2-0.3-0.3v-11.2zm4 9.8c2.5 0 4.2-1.8 4.2-4.3s-1.7-4.3-4.2-4.3h-2.3v8.6h2.3z"/>
  <path class="st0" d="m193.5 156.1c0-0.2 0.2-0.3 0.3-0.3h1.1c0.2 0 0.3 0.2 0.3 0.3v7.1c0 1.7 1.1 2.9 2.8 2.9s2.8-1.2 2.8-2.8v-7.1c0-0.2 0.1-0.3 0.3-0.3h1.1c0.2 0 0.3 0.2 0.3 0.3v7.2c0 2.6-1.9 4.4-4.6 4.4-2.6 0-4.5-1.9-4.5-4.4v-7.3z"/>
  <path class="st0" d="m125.6 230.2c0-0.2 0.1-0.3 0.3-0.3h3.8c2.1 0 3.8 1.7 3.8 3.7 0 2.1-1.7 3.8-3.7 3.8h-2.4v3.9c0 0.2-0.2 0.3-0.3 0.3h-1.1c-0.2 0-0.3-0.2-0.3-0.3v-11.1zm4.1 5.6c1.2 0 2.1-0.9 2.1-2.1 0-1.1-0.9-2-2.1-2h-2.4v4.2h2.4z"/>
  <path class="st0" d="m137.4 241.2l5.2-11.3c0.1-0.1 0.2-0.2 0.3-0.2h0.2c0.1 0 0.2 0.1 0.3 0.2l5.1 11.3c0.1 0.2 0 0.4-0.3 0.4h-1.1c-0.2 0-0.3-0.1-0.4-0.3l-1-2.3h-5.5l-1 2.3c-0.1 0.1-0.2 0.3-0.4 0.3h-1.1c-0.2 0.1-0.4-0.2-0.3-0.4zm7.6-3.5l-2.1-4.6h-0.1l-2 4.6h4.2z"/>
  <path class="st0" d="m154.3 230.2c0-0.2 0.1-0.3 0.3-0.3h4.6c2 0 3.7 1.6 3.7 3.6 0 1.5-1 2.8-2.5 3.4l2.3 4.3c0.1 0.2 0 0.5-0.3 0.5h-1.3c-0.2 0-0.3-0.1-0.4-0.2l-2.2-4.4h-2.5v4.3c0 0.2-0.2 0.3-0.3 0.3h-1.1c-0.2 0-0.3-0.2-0.3-0.3v-11.2zm4.7 5.4c1.1 0 2-0.9 2-2.1 0-1.1-1-2-2-2h-3v4.1h3z"/>
  <path class="st0" d="m169.5 230.2c0-0.2 0.2-0.3 0.3-0.3h1.1c0.2 0 0.3 0.2 0.3 0.3v11.1c0 0.2-0.1 0.3-0.3 0.3h-1.1c-0.2 0-0.3-0.2-0.3-0.3v-11.1z"/>
  <path class="st0" d="m177.8 240l0.4-0.7c0.1-0.2 0.4-0.3 0.6-0.1 0.8 0.7 1.4 1.2 2.7 1.2 1.2 0 1.9-0.7 1.9-1.6 0-1-0.9-1.6-2.5-2.3-1.7-0.7-3.1-1.6-3.1-3.6 0-1.3 1-3.1 3.7-3.1 1.7 0 2.9 0.9 3.1 1 0.1 0.1 0.3 0.3 0.1 0.6l-0.4 0.6c-0.1 0.2-0.4 0.3-0.6 0.2-0.7-0.4-1.3-0.8-2.3-0.8-1.4 0-1.9 0.9-1.9 1.5 0 1 0.7 1.5 2.1 2.1 1.9 0.8 3.6 1.7 3.6 3.8 0 1.7-1.6 3.2-3.7 3.2-2 0-3.3-1.1-3.6-1.3-0.1-0.3-0.3-0.4-0.1-0.7z"/>
 </symbol>
 <symbol id="svg-marker" viewBox="0 0 18 26">
  <path class="st0" d="m9 2.9c3.3 0 6.1 2.9 6.1 6.5 0 2.3-3.1 7.5-6.1 11.7-3-4.2-6.1-9.4-6.1-11.7 0-3.6 2.8-6.5 6.1-6.5m0-2.9c-5 0-9 4.2-9 9.4s9 16.6 9 16.6 9-11.4 9-16.6c0-5.2-4-9.4-9-9.4z"/>
  <path class="st0" d="m9 7.4c-0.6 0-1 0.4-1 1s0.4 1 1 1 1-0.4 1-1c0-0.5-0.4-1-1-1z"/>
 </symbol>
 <symbol id="svg-phone" viewBox="0 0 16 25">
  <path class="st0" d="m12.8 2.7c0.2 0 0.4 0.2 0.4 0.4v18.7c0 0.2-0.2 0.4-0.4 0.4h-9.6c-0.2 0-0.4-0.2-0.4-0.4v-18.6c0-0.2 0.2-0.4 0.4-0.4h9.6m0-2.8h-9.6c-1.8 0-3.2 1.4-3.2 3.2v18.7c0 1.7 1.4 3.1 3.2 3.1h9.7c1.7 0 3.2-1.4 3.2-3.2v-18.6c-0.1-1.8-1.5-3.2-3.3-3.2z"/>
  <path class="st0" d="m8 18c-0.6 0-1 0.4-1 1s0.4 1 1 1c0.6 0 1-0.4 1-1s-0.4-1-1-1z"/>
 </symbol>
</svg>
